<svg width="198" height="44" viewBox="0 0 198 44" fill="none" xmlns="http://www.w3.org/2000/svg">
<g filter="url(#filter0_d_508_248)">
<path d="M16 26V17.4286H17.7105V15.7143H19.4211V14H24.5526V15.7143H26.2632V17.4286H27.9737V26H24.5526V22.5714H19.4211V26H16ZM19.4211 20.8571H24.5526V17.4286H22.8421V15.7143H21.1316V17.4286H19.4211V20.8571Z" fill="white"/>
<path d="M29.6842 26V14H39.9474V15.7143H41.6579V20.8571H39.9474V22.5714H33.1053V26H29.6842ZM33.1053 20.8571H38.2368V15.7143H33.1053V20.8571Z" fill="white"/>
<path d="M45.0789 26V24.2857H43.3684V15.7143H45.0789V14H53.6316V15.7143H55.3421V24.2857H53.6316V26H45.0789ZM46.7895 24.2857H51.9211V15.7143H46.7895V24.2857Z" fill="white"/>
<path d="M60.4737 26V24.2857H58.7632V22.5714H57.0526V17.4286H58.7632V15.7143H60.4737V14H67.3158V15.7143H69.0263V17.4286H65.6053V15.7143H62.1842V17.4286H60.4737V22.5714H62.1842V24.2857H65.6053V22.5714H69.0263V24.2857H67.3158V26H60.4737Z" fill="white"/>
<path d="M70.7368 26V17.4286H72.4474V15.7143H74.1579V14H79.2895V15.7143H81V17.4286H82.7105V26H79.2895V22.5714H74.1579V26H70.7368ZM74.1579 20.8571H79.2895V17.4286H77.5789V15.7143H75.8684V17.4286H74.1579V20.8571Z" fill="white"/>
<path d="M86.1316 26V14H89.5526V24.2857H96.3947V26H86.1316Z" fill="white"/>
<path d="M98.1053 26V20.8571H96.3947V19.1429H94.6842V14H98.1053V19.1429H101.526V14H104.947V19.1429H103.237V20.8571H101.526V26H98.1053Z" fill="white"/>
<path d="M106.658 26V14H116.921V15.7143H118.632V20.8571H116.921V22.5714H110.079V26H106.658ZM110.079 20.8571H115.211V15.7143H110.079V20.8571Z" fill="white"/>
<path d="M122.053 26V24.2857H120.342V22.5714H123.763V24.2857H128.895V20.8571H122.053V19.1429H120.342V15.7143H122.053V14H130.605V15.7143H132.316V17.4286H128.895V15.7143H123.763V19.1429H130.605V20.8571H132.316V24.2857H130.605V26H122.053Z" fill="white"/>
<path d="M134.026 26V14H146V15.7143H137.447V19.1429H144.289V20.8571H137.447V24.2857H146V26H134.026Z" fill="white"/>
<path d="M172 26V24.2857H175.333V15.7143H172V14H182V15.7143H178.667V24.2857H182V26H172Z" fill="white"/>
<path d="M159.714 26V24.2857H158V14H161.429V24.2857H166.571V14H170V24.2857H168.286V26H159.714Z" fill="white"/>
</g>
<defs>
<filter id="filter0_d_508_248" x="0" y="0" width="198" height="44" filterUnits="userSpaceOnUse" color-interpolation-filters="sRGB">
<feFlood flood-opacity="0" result="BackgroundImageFix"/>
<feColorMatrix in="SourceAlpha" type="matrix" values="0 0 0 0 0 0 0 0 0 0 0 0 0 0 0 0 0 0 127 0" result="hardAlpha"/>
<feOffset dy="2"/>
<feGaussianBlur stdDeviation="8"/>
<feComposite in2="hardAlpha" operator="out"/>
<feColorMatrix type="matrix" values="0 0 0 0 0 0 0 0 0 0 0 0 0 0 0 0 0 0 0.2 0"/>
<feBlend mode="normal" in2="BackgroundImageFix" result="effect1_dropShadow_508_248"/>
<feBlend mode="normal" in="SourceGraphic" in2="effect1_dropShadow_508_248" result="shape"/>
</filter>
</defs>
</svg>
